<svg xmlns="http://www.w3.org/2000/svg"><symbol id="pb-horizontal" viewBox="0 0 256 47.1"><path fill="#3a3a3a" d="M.1 45.2A.3.3 0 0 1 0 45v-3a11.1 11.1 0 0 1 .2-1.7 22.4 22.4 0 0 1 1.1-5 13.9 13.9 0 0 1 1-2.6 21.6 21.6 0 0 1 2.5-4.4v-.2a.3.3 0 0 0 0-.4l-1.1-.8a7.8 7.8 0 0 1-1.6-2 3.3 3.3 0 0 1 .1-3.2A8.4 8.4 0 0 1 6 18.4a2.1 2.1 0 0 1 1.9.2 5.2 5.2 0 0 1 1 1.1v.2h-.2l-.9-.5a1.9 1.9 0 0 0-1.8 0 3.5 3.5 0 0 0-1.7 2.1v.3l.6-.7a7.4 7.4 0 0 1 1.3-1.2.3.3 0 0 1 .5 0l-.2.3a7.9 7.9 0 0 0-1.8 2.9.9.9 0 0 0-.1.5h.1l.2-.4a11 11 0 0 1 1.5-1.6h.3a.4.4 0 0 1-.1.3 6.2 6.2 0 0 0-1.2 2.6.4.4 0 0 0-.1.3h.1A7 7 0 0 1 7 23.6a.4.4 0 0 0-.1.3 6.4 6.4 0 0 0-.8 1.9.7.7 0 0 0 .1.5c.2.1.2-.2.3-.3a32.2 32.2 0 0 1 3.2-3.2 31.5 31.5 0 0 1 6.9-4.5 25.5 25.5 0 0 1 5.3-1.8l2.4-.4h.3c.2 0 .2-.1.2-.3v-2.3a.9.9 0 0 0-.4-.8 1.1 1.1 0 0 1-.7-1.1 25.3 25.3 0 0 1-.2-5.5 5.5 5.5 0 0 1 .2-1.8 2.6 2.6 0 0 1 1.5-1.6l.8-.2a13.3 13.3 0 0 1 4-.1h1.1a2.1 2.1 0 0 1 1.6 2.2c-.1 0-.1 0-.1-.1a2.4 2.4 0 0 0-2.3-1.4 5.8 5.8 0 0 0-2.6.3 1.5 1.5 0 0 0-1.2 1.2 4.2 4.2 0 0 0-.3 1.9V7h.1c.1-.3.1-.6.2-.9l.2-.2a.4.4 0 0 1 .1.3v3a3.4 3.4 0 0 0 .3 1.7l.2.4a3.4 3.4 0 0 0 .1-.9 5.9 5.9 0 0 1 0-2.3 9.6 9.6 0 0 1 .3-2.9h.3v.5a10.1 10.1 0 0 0-.1 3 5.7 5.7 0 0 0 .4 2.2c.1.1.2.4.3.4s.1-.3.1-.5V9.5a18.6 18.6 0 0 1 .4-3.3.7.7 0 0 1 .2.6v2.3a7 7 0 0 0 .5 2.5c.1.2.1.5.4.4s0-.3 0-.4a20.1 20.1 0 0 1 .1-2.5c0-.3.1-.6.1-.9h.3v2.4a2.5 2.5 0 0 0 .5 1.5l.3.2a.4.4 0 0 0 .1-.3v-1.1c0-.2 0-.4.2-.4s.1.2.1.4v.5c.1.2.1.4.2.5s.4.3.6 0l.2-.3a1.2 1.2 0 0 1-.4.9 2 2 0 0 1-1.2.8 2.1 2.1 0 0 0-1 .6l-.3.4a6.2 6.2 0 0 1-.1 1.3c0 .1.1.2.3.2h1.3c.2 0 .2 0 .3-.3a6.5 6.5 0 0 1 .4-1.3 3.8 3.8 0 0 0 .1 1v.3c0 .4.1.5.5.5l1.5.3 3.3.9a31.9 31.9 0 0 1 5.9 2.8 29.5 29.5 0 0 1 5.1 4.1 30.5 30.5 0 0 1 3 3.8l-.7-.8a28.5 28.5 0 0 0-5.1-4.7 23 23 0 0 0-3.3-2.1 29.6 29.6 0 0 0-4.9-2 38.6 38.6 0 0 0-4.9-.9l-3-.2a31.5 31.5 0 0 0-4.3.5l-3.3.7-4.3 1.7-3.3 1.9a28.8 28.8 0 0 0-3.4 2.7l-1.4 1.4a40 40 0 0 0-3.2 4 26.3 26.3 0 0 0-2 3.3l-1 2.1a22.6 22.6 0 0 0-1.3 3.3c-.4 1.2-.7 2.4-1.1 3.5s-.1.6-.1.8a4.2 4.2 0 0 1-.4 1.2l-.5.9z"/><path fill="#fff" d="M55.5 44.7L51.6 28"/><path fill="#3a3a3a" d="M26.3 37.5l-.3-.3a20.1 20.1 0 0 0 1.4 2.5c.2-.1.2-.2.1-.3l-.5-.8-.3-.5.9-.3a4.1 4.1 0 0 1 2.2 0c.3.1.5.1.7.3a3 3 0 0 1 1.7 2.9 4.9 4.9 0 0 1-.6 1.7c-.1.3-.3.4-.4.7s-.1.2 0 .4h.3a.5.5 0 0 1 .4.2l.7.9c.2.3.2.4-.1.6l-.8.5a.5.5 0 0 1-.7-.2 2.2 2.2 0 0 1-.5-.8.4.4 0 0 1-.1-.3c0-.4-.2-.5-.5-.5a4.5 4.5 0 0 1-1.6.1 2.8 2.8 0 0 1-2.2-1.1 5.1 5.1 0 0 1-.9-1.6 3.3 3.3 0 0 1 .7-2.8l.3-.2c.1-.2.1-.3-.1-.4s-.2-.2-.2-.3-.1-.3-.2-.5a34.5 34.5 0 0 1-2-3.2l-3.8-5.8-2.1-3.5c-.1-.1-.1-.2-.2-.4h.2l.2.3c1.2 1.8 2.4 3.6 3.5 5.4l3.3 5 .9 1.3.3.4.9-4.5.9-4.3a34.8 34.8 0 0 1 1-4.4 1.8 1.8 0 0 1 .4.9c.1 1 .3 2.1.5 3.2s.3 2.1.5 3.2.5 3 .7 4.5a9.9 9.9 0 0 1 .2 1.7 2 2 0 0 1 .1.7c-.1.2-.1.2-.3.2a4.7 4.7 0 0 0-3.5-.4 1.1 1.1 0 0 0-.9.3l-.2-.4h.4a5 5 0 0 1 2.7-.5c.2 0 .2-.1.2-.3s-.3-2.1-.4-3.2a1.7 1.7 0 0 0-.1-.7H29a.4.4 0 0 1-.1.3v1.9h-.1c-.1 0-.2 0-.2-.1v-.3a18.5 18.5 0 0 1-.1-2.3c-.1-1.1-.1-2.1-.2-3.1V29c-.2.2-.2.3-.2.4s-.6 2.3-.8 3.4a18.9 18.9 0 0 0-.5 2.3c-.2.6-.3 1.2-.5 1.8a.9.9 0 0 0 0 .6zm2.5 2h-.7a1.1 1.1 0 0 0-.7.6 1.4 1.4 0 1 0 2.7.9 1.3 1.3 0 0 0-1.3-1.5zm2.8 1.5h.1l.2-.3a1.3 1.3 0 0 0-.1-.6 2.9 2.9 0 0 0-1.8-1.8 1.9 1.9 0 0 0-1.3-.1l1.3.5a1.8 1.8 0 0 1 1.1 1 1.7 1.7 0 0 1 .5 1.3zm.9 4.2a.1.1 0 0 0-.1-.1 4.7 4.7 0 0 0-.6-.9.2.2 0 0 0-.4-.1.5.5 0 0 0-.3.4c-.1.2.1.3.2.4l.7.4h.3zm-2.6-2.9h-.2a.4.4 0 0 0 .1.3l.8 1.2h.3a.4.4 0 0 0 .1-.3h-.1l-.3-.6-.4-.6z"/><path fill="#3a3a3a" d="M35 19.6h-.3l-1.6-.2h-.9a12.7 12.7 0 0 0-3.9 0l-2.8.4a3.2 3.2 0 0 0-1.4.3l-2.3.7a13.3 13.3 0 0 0-3.4 1.6l-1.8 1.1a22.4 22.4 0 0 0-3.4 2.7 16.7 16.7 0 0 0-2.3 2.3 32.3 32.3 0 0 0-3.3 4.9 30.5 30.5 0 0 0-1.9 4.1c-.2.6-.3 1.2-.5 1.8a7.1 7.1 0 0 0-.4 2 2.8 2.8 0 0 0-.1.9 1.4 1.4 0 0 1-.5.8l-.4.3h-.2a.3.3 0 0 1-.1-.2 15.4 15.4 0 0 1 .4-3c.2-1.2.6-2.4.9-3.6A19.5 19.5 0 0 1 6 33.6c.6-1 1.2-2 1.9-3S9 29 9.6 28.3a14.9 14.9 0 0 1 1.2-1.4l1-1a22.5 22.5 0 0 1 3-2.4l3.8-2.2a22.4 22.4 0 0 1 3.6-1.4l3.5-.9 1.3-.2h3.3l1.8.2 1.3.2 1.1.2h.5zM15.3 41h8.2c.6 0 .6 0 .8-.5a9.1 9.1 0 0 1 .7-1.4l.5-.4c0 .1 0 .2-.1.2a11.2 11.2 0 0 0-.5 1.3 2.5 2.5 0 0 0 .2 2.1c.1.4.4.6.5.9s.1.3.2.4h-.4l-2-.3-4.2-.7-3-.5-2.3-.3-3-.4-.3-.2h.3a2.9 2.9 0 0 1 1-.3l4.6-.9 2.7-.5 2-.4 2.6-.5h.5a1.2 1.2 0 0 1-.9.4l-1.7.4-2.3.5-3.9 1h-.2zm18.8-2.2h-1.3c-.2.1-.3.2-.2.4a4.2 4.2 0 0 1 .4 1.5c0 .3.1.4.4.4h12.3c0 .2-.2.2-.3.2l-3.1.5-3.4.6-3.9.6-3 .6h-.3c0-.1.1-.2.1-.3l.6-1a2 2 0 0 0 .3-1.1 3.4 3.4 0 0 0-.3-1.7l-.3-.5c-.1-.2-.1-.4.2-.4l1.8.2z"/><path fill="#3a3a3a" d="M9.6 41.1h-.7l-2.8.2a.4.4 0 0 1-.5-.2.5.5 0 0 1 .2-.8.6.6 0 0 1 .6 0l2.1.4h1.1zm19.2-18l-.2-.3a16.4 16.4 0 0 0-.2-2.3c0-.4.3-.6.7-.4a.1.1 0 0 1 .1.1.8.8 0 0 1 .1.4c0 .5-.1 1-.1 1.5a3.6 3.6 0 0 1-.4 1zm.7 21.5a1.8 1.8 0 0 1-.9.4 3 3 0 0 1-2.1-.4l-.4-.3v-.2h.2l.7.3a8 8 0 0 0 1.5.3h1zm-15-14.3h-.2l-.4-.2-1-1.2v-.2a.2.2 0 0 1 .3 0 .2.2 0 0 1 .2.2l1 1.1zm7.6-8.1h.2c.1-.1.2 0 .2.1a.4.4 0 0 1 .1.3 9.4 9.4 0 0 1 .4 1.6c.1 0 0 .1 0 .2h-.2c-.1-.1-.1-.3-.2-.4l-.4-1.3c0-.3 0-.3-.1-.5zm12.3 2.6a3.5 3.5 0 0 1 .6-1.7.8.8 0 0 1 .2-.4h.2c.1 0 .1.2.1.2a.4.4 0 0 1-.1.3 11.9 11.9 0 0 1-.8 1.6v.2zM10.1 36c-.1 0-.2 0-.2-.1l-1-.5-.2-.2c-.1-.1 0-.2.1-.2h.1l1.3.7c.1 0 .1.1.1.2zm19.5 5.4c0 .1-.1.1-.1.2a1.5 1.5 0 0 1-1.9-.5 1.2 1.2 0 0 1 .7-1.4h.2c-.2.5-.4.9-.1 1.3s.7.5 1.2.4zm32.2-18.3V8h5.8a9 9 0 0 1 2.5.3 4.2 4.2 0 0 1 1.6.9 6.4 6.4 0 0 1 .8 1.4 7.8 7.8 0 0 1 .2 1.6 4.6 4.6 0 0 1-.5 2.1 5.7 5.7 0 0 1-1.4 1.3 5.9 5.9 0 0 1-2 .6 7.5 7.5 0 0 1-2.1.2h-3.4v6.7zm4.9-7.9h1.9l1.4-.5a2 2 0 0 0 .9-.9 3.8 3.8 0 0 0 .3-1.6 2.5 2.5 0 0 0-1-2.2 4.7 4.7 0 0 0-3-.7h-3.9v6zm13.5 7.9L86.3 8H88l6 15.1h-1.5l-1.8-4.7h-7.2l-1.8 4.7zm3.8-6h6.2l-3.1-7.9zM101.1 8h11.4v1.2h-5v13.9H106V9.2h-4.9z"/><path fill="#80ce2d" d="M132.6 9.6a3.5 3.5 0 0 1 .7 2.3 3.1 3.1 0 0 1-.7 2.2 3.8 3.8 0 0 1-1.2.9 3.5 3.5 0 0 1 1.8 1.3 4.1 4.1 0 0 1 .6 2.3 4 4 0 0 1-.7 2.4l-1.1 1.2a4.8 4.8 0 0 1-1.8.7 7.8 7.8 0 0 1-2.2.2h-7.1V8h7.6c1.9 0 3.3.5 4.1 1.6zm-8.5 1V14h3.8a3.4 3.4 0 0 0 1.6-.4 1.4 1.4 0 0 0 .7-1.4 1.4 1.4 0 0 0-.9-1.4l-1.8-.2zm0 5.9v4h3.8a3.8 3.8 0 0 0 1.6-.3 1.9 1.9 0 0 0 1-1.9 1.5 1.5 0 0 0-1-1.6 3.7 3.7 0 0 0-1.6-.2zm31 5.3c-1.2 1.2-2.9 1.7-5.2 1.7a6.9 6.9 0 0 1-5.1-1.7 8.1 8.1 0 0 1-2.4-6.3 7.8 7.8 0 0 1 2.4-6.2 6.9 6.9 0 0 1 5.1-1.8 7 7 0 0 1 5.2 1.8 8.1 8.1 0 0 1 2.3 6.2 8.4 8.4 0 0 1-2.3 6.3zm-2.1-2.3a6 6 0 0 0 1.2-4 5.7 5.7 0 0 0-1.2-3.9 3.8 3.8 0 0 0-3.1-1.4 4 4 0 0 0-3.1 1.4 5.7 5.7 0 0 0-1.1 3.9 6 6 0 0 0 1.1 4 4 4 0 0 0 3.1 1.4 3.8 3.8 0 0 0 3.1-1.4zm16.3 3.6H166V8h3.3zM178.7 8h3.3v12.4h7.8v2.7h-11.1zm31.3 2.7h-8.3v3.2h7.6v2.6h-7.6v3.9h8.7v2.7h-11.9V8H210zM223.8 8h3.7l5.6 15.1h-3.6l-1-3.1h-5.8l-1.1 3.1h-3.4zm-.2 9.4h4l-2-6zM241.4 8h3.4v9.3a4.7 4.7 0 0 0 .4 2.3c.3.8 1.2 1.2 2.5 1.2s2.2-.4 2.6-1.2a4.7 4.7 0 0 0 .4-2.3V8h3.3v9.3a6.4 6.4 0 0 1-.8 3.7c-.9 1.7-2.8 2.5-5.5 2.5s-4.5-.8-5.5-2.5a7.3 7.3 0 0 1-.8-3.7z"/><path fill="none" stroke="#3a3a3a" stroke-miterlimit="10" stroke-width=".97" d="M60.9 28.9h193.7"/><path fill="#3a3a3a" d="M68.4 34.6v7h-.8V36l-2.4 4.4c-.1.2-.2.2-.4.2h-.1c-.2 0-.3 0-.4-.2L61.9 36v5.6H61v-7h1.1l2.4 4.4v.2a.4.4 0 0 1 .1.3.4.4 0 0 0 .1-.3l.2-.2 2.4-4.4a.1.1 0 0 1 .1-.1h.9zm7.6 7h-.9l-.2-.2-.6-1.7h-3.2l-.7 1.7c0 .1 0 .1-.1.2h-.9l2.8-7h1zM74 39l-1.1-2.9a.4.4 0 0 1-.1-.3c0-.1-.1-.2-.1-.3s-.1.5-.2.6L71.4 39zm6.6-3.3h-.7l-.4-.2h-1.2l-.4.2a.5.5 0 0 0-.2.4c-.1.1-.1.2-.1.4a.7.7 0 0 0 .1.5l.4.3.6.3.6.2.6.2.6.4.3.5a1.4 1.4 0 0 1 .2.7 2.9 2.9 0 0 1-.2.9 2.5 2.5 0 0 1-.4.7l-.8.5h-1l-1.2-.2-1-.7.3-.5h.3c.1 0 .2 0 .2.1l.3.2h.3l.4.2h1.1l.4-.2.3-.4a1.3 1.3 0 0 0 .1-.6.8.8 0 0 0-.2-.5l-.3-.3-.6-.3-.6-.2-.6-.2-.6-.3c-.1-.2-.3-.4-.3-.6a1.5 1.5 0 0 1-.2-.8 1.9 1.9 0 0 1 .2-.7c0-.2.2-.4.4-.6l.7-.4.9-.2 1.1.2.8.5zm5.4 0h-.7l-.4-.2h-1.2l-.4.2a.5.5 0 0 0-.2.4c-.1.1-.1.2-.1.4a.7.7 0 0 0 .1.5l.4.3.6.3.6.2.6.2.6.4.3.5a1.4 1.4 0 0 1 .2.7 2.9 2.9 0 0 1-.2.9 2.5 2.5 0 0 1-.4.7l-.8.5h-1l-1.2-.2-1-.7.3-.5h.4a.1.1 0 0 1 .1.1l.3.2h.3l.4.2h1.1l.4-.2.3-.4a1.3 1.3 0 0 0 .1-.6.8.8 0 0 0-.2-.5l-.3-.3-.6-.3-.6-.2-.6-.2-.6-.3-.3-.6a1.5 1.5 0 0 1-.2-.8 1.9 1.9 0 0 1 .2-.7 2.1 2.1 0 0 1 .4-.6l.7-.4.9-.2 1.1.2.8.5zm7.4 5.9h-.9l-.2-.2-.6-1.7h-3.2l-.7 1.7c0 .1 0 .1-.1.2h-.9l2.8-7h1zm-2-2.6l-1.1-2.9a.4.4 0 0 1-.1-.3c0-.1-.1-.2-.1-.3s-.1.5-.2.6L88.8 39zm8.5-.8V41l-1.1.5a2.7 2.7 0 0 1-1.3.2l-1.6-.2-1.1-.8a4.4 4.4 0 0 1-.8-1.1 7.7 7.7 0 0 1-.2-1.5 3.9 3.9 0 0 1 .2-1.5 4.1 4.1 0 0 1 .7-1.1 2.9 2.9 0 0 1 1.2-.7 3.3 3.3 0 0 1 1.5-.3h1.4l.6.3.5.4-.3.4c0 .1-.1.1-.2.1s-.1.1-.2 0l-.2-.2a.5.5 0 0 1-.4-.2h-1.2l-1.1.2a2.8 2.8 0 0 0-.9.6 1.9 1.9 0 0 0-.5.9 3.6 3.6 0 0 0-.2 1.1 3.7 3.7 0 0 0 .2 1.2 2 2 0 0 0 .6.9l.8.6h2a1.3 1.3 0 0 0 .8-.3V39h-1.3v-.6zm5.9 2.7v.7h-4.3v-7h4.3v.8h-3.4v2.3h2.8v.8h-2.8v2.4zm8.5-5.5H112v6.2h-1v-6.2h-2.3v-.8h5.6zm6.8-.8v7h-1v-3.2h-3.8v3.2h-.9v-7h.9v3.1h3.8v-3.1zm6.2 6.3v.7h-4.4v-7h4.4v.8h-3.4v2.3h2.8v.8h-2.8v2.4zm6.6.7h-.8c-.2 0-.3 0-.4-.2l-1.9-2.5c0-.1-.1-.1-.1-.2h-1.1v2.9h-.9v-7h3.1l.9.4a2.1 2.1 0 0 1 .4.6 2.4 2.4 0 0 1 .2.8c0 .3-.1.5-.1.7a1.3 1.3 0 0 1-.4.6l-.5.5-.8.2.4.3zm-3.3-3.6h.8l.5-.3a.5.5 0 0 0 .3-.4 1.3 1.3 0 0 0 .1-.6 1 1 0 0 0-.4-.9 1.5 1.5 0 0 0-1.2-.4h-1.1V38zm10.1 3.6h-1c0-.1-.1-.1-.1-.2l-.7-1.7h-3.1l-.7 1.7c0 .1 0 .1-.1.2h-1l2.9-7h.9zm-2-2.6l-1.1-2.9c-.1 0-.1-.1-.1-.3a.4.4 0 0 1-.1-.3l-.3.6L136 39zm5-4.4h1.2l.8.5a1.8 1.8 0 0 1 .5.7 2 2 0 0 1 .2.9 2.9 2.9 0 0 1-.2.9l-.5.7a2 2 0 0 1-.8.4l-1.2.2h-1.1v2.6h-.9v-7zm0 3.6h.8c.2 0 .3-.1.5-.3l.3-.4a1.3 1.3 0 0 0 .1-.6 1.4 1.4 0 0 0-.4-1.1 2.2 2.2 0 0 0-1.3-.4h-1.1v2.9zm6.4.6v2.8h-.9v-2.8l-2.6-4.2h1l.2.2 1.6 2.7c0 .2.1.3.1.4l.2.3a.4.4 0 0 1 .1-.3c0-.1.1-.2.1-.4l1.7-2.7v-.2h1zm5.8-4.7h.6v9.3h-.6zm10.5 7.5h-1c0-.1-.1-.1-.1-.2l-.6-1.7h-3.2l-.7 1.7c0 .1 0 .1-.1.2h-.9l2.8-7h1zm-2-2.6l-1.1-2.9c-.1 0-.1-.1-.1-.3a.4.4 0 0 1-.1-.3 2.1 2.1 0 0 0-.2.6l-1.2 2.9zm7-3.6h-2.2v6.2h-1v-6.2h-2.3v-.8h5.5zm6.9-.8v7h-1v-3.2h-3.8v3.2h-1v-7h1v3.1h3.8v-3.1zm5.8 6.2v.8h-4v-7h1v6.2zm5.5.1v.7h-4.4v-7h4.4v.8h-3.4v2.3h2.7v.8h-2.7v2.4zm6.2-5.5h-2.3v6.2h-1v-6.2h-2.3v-.8h5.6zm2 6.2h-.9v-7h.9zm6.8-1.4h.2l.4.5a2.6 2.6 0 0 1-1.1.7 3.3 3.3 0 0 1-1.5.3l-1.4-.2a3.9 3.9 0 0 1-1-.8 2.6 2.6 0 0 1-.7-1.1 3.9 3.9 0 0 1 0-3 4.1 4.1 0 0 1 .7-1.1 2.6 2.6 0 0 1 1.1-.7 3.2 3.2 0 0 1 1.4-.3l1.3.2a2.6 2.6 0 0 1 1 .7l-.3.4h-.4l-.3-.3-.5-.2h-.8l-1 .2a1.6 1.6 0 0 0-.8.6 2.2 2.2 0 0 0-.5.8 5 5 0 0 0-.2 1.2 4.3 4.3 0 0 0 .2 1.2 4.1 4.1 0 0 0 .5.9l.8.5 1 .2h.5l.5-.2.4-.2.4-.2zm8.8-4.8h-2.3v6.2h-1v-6.2h-2.3v-.8h5.6zm6.3 6.2h-.9c-.1 0-.3 0-.3-.2l-1.9-2.5c0-.1-.1-.1-.2-.2h-1v2.9h-.9v-7h3.1a1.5 1.5 0 0 1 .8.4l.5.6a2.4 2.4 0 0 1 .2.8 1.4 1.4 0 0 1-.2.7c0 .3-.2.4-.3.6l-.6.5-.7.2.3.3zm-3.3-3.6h.8l.5-.3.3-.4a1.3 1.3 0 0 0 .1-.6 1 1 0 0 0-.4-.9 1.6 1.6 0 0 0-1.2-.4h-1.1V38zm10 3.6h-.9c-.1-.1-.1-.1-.1-.2l-.7-1.7h-3.2l-.6 1.7c0 .1-.1.1-.1.2h-1l2.9-7h.9zm-1.9-2.6l-1.2-2.9a.8.8 0 0 0-.1-.3.4.4 0 0 0-.1-.3 1.1 1.1 0 0 1-.2.6l-1.1 2.9zm3.9 2.6h-1v-7h1zm7.6-7v7h-.9l-4-5.4v5.5h-.9v-7h.7a.1.1 0 0 1 .1.1h.1l4.1 5.4a.4.4 0 0 1-.1-.3v-5.3zm2.8 7h-1v-7h1zm7.6-7v7h-.9l-4-5.4v5.5h-.9v-7h.7a.1.1 0 0 1 .1.1h.1l4 5.4v-5.6zm7.6 3.6V41l-1.2.5a2.7 2.7 0 0 1-1.3.2l-1.5-.2a3.6 3.6 0 0 1-1.2-.8 4.4 4.4 0 0 1-.8-1.1 7.7 7.7 0 0 1-.2-1.5 7.7 7.7 0 0 1 .2-1.5 2.8 2.8 0 0 1 .8-1.1 2.1 2.1 0 0 1 1.1-.7 3.3 3.3 0 0 1 1.5-.3h1.4l.6.3.5.4-.3.4a.1.1 0 0 1-.1.1.2.2 0 0 1-.3 0l-.2-.2-.4-.2h-1.2l-1.1.2a2.4 2.4 0 0 0-.8.6 2 2 0 0 0-.6.9 3.7 3.7 0 0 0-.1 1.1 4.1 4.1 0 0 0 .1 1.2 2 2 0 0 0 .6.9l.8.6h2a1.3 1.3 0 0 0 .8-.3V39h-1.3v-.6z"/></symbol><symbol id="pb-icon" viewBox="0 0 255.6 255.6"><circle cx="127.8" cy="127.8" r="127.8" fill="#363636"/><circle cx="127.8" cy="128" r="113.2" fill="none" stroke="#80ce2d" stroke-miterlimit="10" stroke-width="2.52"/><path fill="#f4f4f4" d="M54.3 81.4h40.8c8.1 0 14.6 2.3 19.6 6.9s7.4 11 7.4 19.3a28.2 28.2 0 0 1-6.6 18.6c-4.5 5.3-11.2 7.9-20.4 7.9H66.6v38.6H54.3zM102.2 94c-2.7-1.3-6.4-2-11.1-2H66.6v31.7h24.5c5.5 0 9.9-1.2 13.4-3.6s5.1-6.5 5.1-12.5-2.4-11.2-7.4-13.6z"/><path fill="#80ce2d" d="M203.4 90.9a22.4 22.4 0 0 1 4.4 13.9c0 5.6-1.5 10.1-4.4 13.5a20.9 20.9 0 0 1-7.2 5.2 20.8 20.8 0 0 1 10.9 8.1 23.4 23.4 0 0 1 3.7 13.4 26.6 26.6 0 0 1-4.2 14.7 27 27 0 0 1-6.7 7.2 28 28 0 0 1-10.7 4.6 70.3 70.3 0 0 1-13.4 1.2H133V81.1h45.9c11.5.2 19.7 3.4 24.5 9.8zM152 97v20.2h23a19.5 19.5 0 0 0 10-2.3c2.6-1.5 3.9-4.2 3.9-8s-1.7-7.1-5.1-8.5a38.7 38.7 0 0 0-11.2-1.4zm0 35.4v24.4h23c4.1 0 7.3-.5 9.6-1.6 4.1-2 6.2-5.8 6.2-11.5s-2-8-6-9.8a24.2 24.2 0 0 0-9.5-1.5z"/></symbol><symbol id="pb-vertical" viewBox="0 0 256 136.6"><path fill="#3a3a3a" d="M72.7 82.3v-.5c0-1.9-.1-3.8 0-5.7s.2-2.1.3-3.2a51.4 51.4 0 0 1 4-14.6 53.6 53.6 0 0 1 4.8-8.4l.3-.4a.5.5 0 0 0-.1-.8L80 47a10.4 10.4 0 0 1-3.1-3.8 6.1 6.1 0 0 1 .1-6 16 16 0 0 1 7.2-6.4 3.8 3.8 0 0 1 3.6.4 6 6 0 0 1 1.9 2c.1.1 0 .3 0 .4h-.4l-1.6-.9a3.8 3.8 0 0 0-3.6 0 6.7 6.7 0 0 0-3.2 4c-.1.1 0 .3 0 .5L82 36a13.4 13.4 0 0 1 2.5-2.3 1 1 0 0 1 1.1-.1l-.5.6a18.7 18.7 0 0 0-3.5 5.7c-.1.3-.1.6-.2.9h.2l.5-.6a13.6 13.6 0 0 1 2.8-3.1h.7l-.2.5a11.6 11.6 0 0 0-2.5 5.1v.5c0 .1 0 .1.1.2s1.7-1.9 3-2.6-.1.5-.2.6a14.9 14.9 0 0 0-1.4 3.6c0 .3 0 .8.1.8s.5-.3.6-.5a51.9 51.9 0 0 1 6.2-6.2 53.2 53.2 0 0 1 13.3-8.6 50 50 0 0 1 10.1-3.4l4.6-.9h.5c.4 0 .6-.2.6-.5s0-2.9-.1-4.4a1.4 1.4 0 0 0-.8-1.4 2.3 2.3 0 0 1-1.4-2.2 62.3 62.3 0 0 1-.4-10.6 9.5 9.5 0 0 1 .5-3.3A4.5 4.5 0 0 1 121 .6l1.6-.4a27.6 27.6 0 0 1 7.6-.2l2.2.3a3.8 3.8 0 0 1 3 4.2l-.2-.2a4.8 4.8 0 0 0-4.4-2.7 13.4 13.4 0 0 0-4.9.5 3.4 3.4 0 0 0-2.4 2.4 9.3 9.3 0 0 0-.6 3.7v.7h.2c.2-.6.3-1.2.5-1.7l.4-.6a1.9 1.9 0 0 1 .2.7c0 1.9-.1 3.8-.1 5.7a7.7 7.7 0 0 0 .6 3.3l.4.7a5.1 5.1 0 0 0 .1-1.7 16.2 16.2 0 0 1 0-4.4v-.3a24.8 24.8 0 0 1 .6-5.4c0-.1 0-.2.1-.2s.1-.3.2-.2a.2.2 0 0 1 .2.2 2.8 2.8 0 0 1 .1.9 18.2 18.2 0 0 0-.2 5.7 13.2 13.2 0 0 0 .8 4.4l.5.6c.4-.2.2-.5.2-.8s.1-1.5.1-2.2a46.7 46.7 0 0 1 .7-6.3 1.2 1.2 0 0 1 .4 1.1c0 1.5 0 3 .1 4.5a12.8 12.8 0 0 0 .9 4.8c.1.3.2.9.7.7s.1-.5.1-.8 0-3.2.1-4.7a8.6 8.6 0 0 1 .3-1.7c0-.2.2-.3.3-.4s.2.3.2.4a5.6 5.6 0 0 1 0 1.3c0 1.1.1 2.2 0 3.3a4.6 4.6 0 0 0 1.1 2.9l.5.2a4.3 4.3 0 0 1 .1-.5v-2.1c0-.3 0-.8.4-.7s.2.4.3.7a3.3 3.3 0 0 0 0 1 2.3 2.3 0 0 0 .3 1.1c.2.5.8.5 1.1-.1a2.1 2.1 0 0 1 .4-.6 2.4 2.4 0 0 1-.7 1.8 4.7 4.7 0 0 1-2.4 1.5 5 5 0 0 0-1.9 1.1 2.6 2.6 0 0 0-.5.9c-.1.8-.1 1.5-.2 2.3a.5.5 0 0 0 .6.6l2.4.2c.4 0 .5-.2.6-.6a26.8 26.8 0 0 1 .7-2.7c.1.7.1 1.3.2 2v.6c.1.7.2.9 1 1s2 .3 3 .6a62.9 62.9 0 0 1 6.2 1.7 54.1 54.1 0 0 1 11.4 5.4A57.5 57.5 0 0 1 166 42a48.1 48.1 0 0 1 5.7 7.3c-.4-.6-.9-1.1-1.3-1.6a55.1 55.1 0 0 0-9.7-9 54 54 0 0 0-6.5-4 51.7 51.7 0 0 0-9.4-3.9 58.8 58.8 0 0 0-9.3-1.8l-5.8-.3a55.6 55.6 0 0 0-8.2.9 36.1 36.1 0 0 0-6.5 1.5 47.1 47.1 0 0 0-8.1 3.2 58.9 58.9 0 0 0-6.4 3.7 62.4 62.4 0 0 0-6.5 5l-2.7 2.7a56.2 56.2 0 0 0-6.2 7.5 40 40 0 0 0-3.7 6.3c-.7 1.4-1.5 2.8-2.1 4.2a49.9 49.9 0 0 0-2.5 6.4c-.7 2.2-1.3 4.4-2 6.6a9 9 0 0 0-.3 1.6 8.1 8.1 0 0 1-.7 2.2l-.9 1.8z"/><path fill="#fff" d="M179.2 81.3l-7.5-32"/><path fill="#3a3a3a" d="M123.2 67.5l-.6-.5a32.6 32.6 0 0 0 2.7 4.8c.3-.3.3-.5.1-.6l-1-1.7a5.6 5.6 0 0 1-.5-.8l1.8-.6a6.7 6.7 0 0 1 4.2 0l1.4.4c2.1 1.3 3.5 3.2 3.1 5.8a7.6 7.6 0 0 1-1.1 3.2 7.5 7.5 0 0 0-.7 1.2.8.8 0 0 0-.1.8h.6a.8.8 0 0 1 .9.4l1.2 1.6c.4.6.4.8-.1 1.2a9.1 9.1 0 0 1-1.6 1.1 1.2 1.2 0 0 1-1.3-.4c-.4-.5-.7-1.1-1.1-1.7s0-.4 0-.6a.8.8 0 0 0-1.1-.8 10.6 10.6 0 0 1-3.1.2 5.5 5.5 0 0 1-4.1-2.1 9.4 9.4 0 0 1-1.7-3.1 5.6 5.6 0 0 1 1.3-5.3l.5-.5c.3-.4.3-.6-.1-.7a.8.8 0 0 1-.4-.7 3.6 3.6 0 0 0-.4-.9l-3.9-6.1-7.2-11.3-4-6.5-.5-.8c0-.1 0-.3.1-.3h.3c.2.1.3.4.4.6l6.8 10.5 6.3 9.6 1.7 2.5.5.7c.6-3 1.2-5.8 1.7-8.5l1.8-8.4a84.5 84.5 0 0 1 1.9-8.4 1.9 1.9 0 0 1 .7 1.6c.4 2.1.7 4.2 1 6.2s.7 4.2 1.1 6.3l1.2 8.5c.2 1.1.4 2.2.5 3.3a7.1 7.1 0 0 1 .1 1.4c0 .4-.2.4-.5.3a9.2 9.2 0 0 0-6.7-.8 2.8 2.8 0 0 0-1.7.7l-.4-.8.8-.2a8.7 8.7 0 0 1 5-1c.4 0 .5-.1.5-.6s-.5-4-.8-6.1c0-.4-.1-.9-.1-1.3h-.2a1.4 1.4 0 0 1-.2.6v1.7a11.5 11.5 0 0 0-.1 1.9.2.2 0 0 1-.2.2h-.3a1.7 1.7 0 0 1-.1-.7c-.1-1.5-.2-3-.2-4.5l-.3-5.8a1.3 1.3 0 0 0-.1-.6 1.3 1.3 0 0 0-.3.8c-.6 2.1-1.1 4.3-1.6 6.5s-.6 2.9-1 4.4-.5 2.2-.8 3.4a1.7 1.7 0 0 0 0 1.3zm4.8 3.8l-1.3.2a2 2 0 0 0-1.5 1.2 2.7 2.7 0 0 0 2.4 4 2.7 2.7 0 0 0 2.9-2.3 2.5 2.5 0 0 0-2.5-3.1zm5.4 2.9h.2c.1-.2.3-.4.3-.6a5 5 0 0 0-.2-1.2 5.9 5.9 0 0 0-3.4-3.5 3.9 3.9 0 0 0-2.4-.1l2.4 1a4.6 4.6 0 0 1 2.1 1.8 4 4 0 0 1 1 2.6zm1.6 8.1a.4.4 0 0 0-.1-.3l-1.1-1.7a.6.6 0 0 0-.9-.1 2.4 2.4 0 0 0-.6.8c-.1.3.2.5.4.7l1.4.8h.5c.2.1.3-.1.4-.2zm-4.9-5.6c-.1.1-.3.1-.3.2a.7.7 0 0 0 .1.6l1.5 2.2.3.3h.4c0-.2.1-.3.1-.5v-.2l-.7-1.1-.8-1.2a1 1 0 0 0-.6-.3z"/><path fill="#3a3a3a" d="M139.9 33.1c-.2 0-.4.1-.6 0l-3.2-.5h-1.7a30.5 30.5 0 0 0-7.4 0l-5.5.7-2.6.6-4.4 1.4a33.1 33.1 0 0 0-6.6 3.1c-1.1.8-2.3 1.4-3.3 2.2a55.6 55.6 0 0 0-6.7 5c-1.4 1.5-3 2.9-4.3 4.4a57.3 57.3 0 0 0-6.4 9.6 53.4 53.4 0 0 0-3.5 7.7 23.5 23.5 0 0 0-1.1 3.5 18 18 0 0 0-.8 3.9 11.1 11.1 0 0 1-.2 1.7 1.8 1.8 0 0 1-.9 1.5l-.7.7-.5.2c0-.2-.1-.3-.1-.5a27.8 27.8 0 0 1 .7-5.7c.5-2.4 1.1-4.7 1.8-7a24.8 24.8 0 0 1 2.4-5.6 41.5 41.5 0 0 1 3.5-5.7c1.1-1.5 2.1-3.1 3.2-4.5a28.5 28.5 0 0 1 2.3-2.6c.7-.7 1.4-1.3 2-2a41.8 41.8 0 0 1 5.8-4.6 76.3 76.3 0 0 1 7.3-4.2 34.1 34.1 0 0 1 6.9-2.7l6.6-1.8a10.9 10.9 0 0 1 2.6-.3c2.1-.1 4.2-.1 6.4 0l3.3.3 2.6.4 2.2.5.9.2zm-37.8 41h15.7c1.1 0 1 0 1.5-1s.9-1.7 1.4-2.6a2.9 2.9 0 0 1 1-.8l-.2.5a12.8 12.8 0 0 0-1.1 2.4 5.8 5.8 0 0 0 .4 4.1 16.3 16.3 0 0 0 1.1 1.7l.3.7h-.7l-3.9-.7-8-1.3-5.9-1-4.4-.6-5.7-.8-.6-.2.5-.4 2-.5 8.9-1.7 5.2-.9 3.7-.8 5.1-.9h.9a4.5 4.5 0 0 1-1.8.7l-3.2.7-4.5 1.3-7.5 1.8h-.2zm36-4.2h-2.4c-.4 0-.6.2-.4.6a9.5 9.5 0 0 1 .7 2.9c0 .6.2.7.8.7h23.7a.8.8 0 0 1-.7.4l-6 .9-6.4 1.1-7.6 1.3-5.7 1.2h-.6c.1-.2.1-.4.2-.5l1.2-1.9a4.6 4.6 0 0 0 .5-2.1 7 7 0 0 0-.5-3.2l-.6-1c-.2-.4-.1-.7.3-.7a13.5 13.5 0 0 1 3.5.2z"/><path fill="#3a3a3a" d="M91.2 74.3l-1.4.2-5.4.5a.8.8 0 0 1-1-.5.9.9 0 0 1 .5-1.5h1l4 .8h.9l1.3.3zm36.7-34.4l-.3-.6c-.1-1.5-.2-3-.4-4.6 0-.9.6-1.2 1.3-.9a.5.5 0 0 1 .3.3 2.5 2.5 0 0 1 .1.8c-.1 1-.2 1.9-.2 2.8a5.8 5.8 0 0 1-.8 2.2zm1.5 41.2a3.2 3.2 0 0 1-1.9.7 6.1 6.1 0 0 1-4-.7 1.8 1.8 0 0 1-.7-.5v-.5h.4l1.2.6a10.7 10.7 0 0 0 3 .6h2zm-28.9-27.5l-.3.2c-.3-.1-.7-.1-.8-.3s-1.3-1.5-2-2.3 0-.4.1-.5.3 0 .5 0 .3.3.4.4l1.8 2.2zm14.6-15.5l.4-.3.4.3a1.4 1.4 0 0 1 .2.6c.3 1 .6 2 .8 3a4.3 4.3 0 0 0-.1.5l-.4-.3-.3-.7a24.1 24.1 0 0 1-.8-2.5zm23.6 5a8.6 8.6 0 0 1 1.1-3.3 2.5 2.5 0 0 1 .4-.7l.5-.2a.6.6 0 0 1 .1.4.7.7 0 0 1-.1.5l-1.6 3.2-.2.3zM92.1 64.6l-.5-.2-2-1-.3-.3c-.1-.3 0-.5.3-.5s.2 0 .2.1l2.5 1.3a.8.8 0 0 1 .2.4zM129.5 75c-.1.2-.1.3-.2.3a2.7 2.7 0 0 1-3.6-.8 2.2 2.2 0 0 1 1.2-2.8h.5c-.5.8-.8 1.6-.2 2.4s1.3 1 2.3.9zM3.6 111.5V92.1h7.3a9.8 9.8 0 0 1 3.2.5 4.5 4.5 0 0 1 2 1.2 3.7 3.7 0 0 1 1 1.7 6.4 6.4 0 0 1 .3 2 4.5 4.5 0 0 1-.7 2.7 4.4 4.4 0 0 1-1.7 1.6 10.6 10.6 0 0 1-2.5.9 12.7 12.7 0 0 1-2.8.2H5.5v8.6zm6.2-10.1l2.4-.2a4.8 4.8 0 0 0 1.8-.6 3.2 3.2 0 0 0 1.1-1.2 4 4 0 0 0 .4-2 3.5 3.5 0 0 0-1.2-2.8 7.2 7.2 0 0 0-4-.9H5.5v7.7zm17.1 10.1l7.9-19.4h2.1l7.7 19.4h-1.9l-2.3-6.1h-9.2l-2.3 6.1zm5-7.7h7.8l-3.9-10.1zm21.7-11.7h14.6v1.6h-6.3v17.8H60V93.7h-6.4z"/><path fill="#80ce2d" d="M93.8 94.2a4.9 4.9 0 0 1 .9 3 4.3 4.3 0 0 1-.9 2.8 4.5 4.5 0 0 1-1.5 1.1 4.5 4.5 0 0 1 2.3 1.7 5.1 5.1 0 0 1 .8 2.8 5.4 5.4 0 0 1-.9 3.1 6.7 6.7 0 0 1-1.4 1.5 6 6 0 0 1-2.3 1 12.7 12.7 0 0 1-2.8.3h-9V92.1h9.6c2.5.1 4.2.8 5.2 2.1zM83 95.5v4.3h4.8a4.1 4.1 0 0 0 2.1-.5 1.7 1.7 0 0 0 .8-1.7 1.7 1.7 0 0 0-1-1.8 8.3 8.3 0 0 0-2.4-.3zm0 7.5v5.1h4.8a5.3 5.3 0 0 0 2-.3 2.4 2.4 0 0 0 1.3-2.4 2.1 2.1 0 0 0-1.2-2.1 5.6 5.6 0 0 0-2-.3zm39.5 6.8c-1.5 1.5-3.7 2.2-6.6 2.2s-5-.7-6.5-2.2-3-4.5-3-8 1-6.2 3-8 3.7-2.2 6.5-2.2 5.1.7 6.6 2.2 3 4.4 3 8-1 6.1-3 8zm-2.6-3a7.5 7.5 0 0 0 1.4-5c0-2.2-.4-3.9-1.4-5a4.9 4.9 0 0 0-4-1.8 5.1 5.1 0 0 0-3.9 1.7 7.8 7.8 0 0 0-1.5 5.1 7.5 7.5 0 0 0 1.5 5 4.8 4.8 0 0 0 3.9 1.8 4.9 4.9 0 0 0 4-1.8zm20.8 4.7h-4.2V92.1h4.2zm12-19.4h4.2V108h10v3.5h-14.2zm39.9 3.5H182v4.1h9.8v3.3H182v5h11.1v3.5H178V92.1h14.6zm17.6-3.5h4.8l7 19.4h-4.5l-1.3-4h-7.4l-1.3 4h-4.4zm-.3 12.1h5.2l-2.6-7.6zm22.8-12.1h4.3V104a7.1 7.1 0 0 0 .4 2.9 3.4 3.4 0 0 0 3.3 1.6c1.7 0 2.8-.5 3.3-1.6a5.6 5.6 0 0 0 .5-2.9V92.1h4.3V104a10.1 10.1 0 0 1-1 4.8c-1.3 2.1-3.6 3.2-7.1 3.2s-5.8-1.1-7-3.2a9 9 0 0 1-1-4.8z"/><path fill="none" stroke="#3a3a3a" stroke-miterlimit="10" stroke-width="1.24" d="M2.4 118.8h247.1"/><path fill="#3a3a3a" d="M11.9 125.3v9.1h-1v-7.3l-3.1 5.7c-.1.2-.2.3-.4.3h-.2a.5.5 0 0 1-.5-.3l-3.1-5.7v7.3H2.5v-9.1h1.2l.2.2 3.1 5.6v.3c.1.1.1.2.2.4s.1-.3.1-.4l.2-.3 3-5.5.2-.2h1.1zm9.7 9.1h-1.2c0-.1-.1-.1-.1-.2l-.9-2.2h-4l-.9 2.2v.2h-1.3l3.6-9.1H18zm-2.5-3.4l-1.4-3.7-.2-.3c0-.2-.1-.3-.1-.5l-.3.9-1.4 3.6zm8.4-4.2H27l-.4-.2-.5-.2h-1.5a.5.5 0 0 0-.5.3c-.1.1-.3.2-.3.4a1.3 1.3 0 0 0-.1.6.7.7 0 0 0 .2.6l.4.4.7.3.8.3.8.3.7.4a1.8 1.8 0 0 1 .5.7 2.4 2.4 0 0 1 .2.9 3.6 3.6 0 0 1-.2 1.1 1.5 1.5 0 0 1-.6.9 2.4 2.4 0 0 1-.9.6 2.8 2.8 0 0 1-1.3.3 2.9 2.9 0 0 1-1.6-.4 5.7 5.7 0 0 1-1.3-.8l.4-.6h.5l.2.2.3.2.4.2.5.2h.6l.8-.2.6-.3.3-.5a1.7 1.7 0 0 0 .1-.7 1.5 1.5 0 0 0-.1-.7l-.5-.4-.7-.3-.8-.3a1.3 1.3 0 0 1-.8-.3l-.7-.4a1.8 1.8 0 0 1-.5-.7 2.5 2.5 0 0 1-.2-1 2.9 2.9 0 0 1 .2-.9 1.6 1.6 0 0 1 .6-.8l.8-.5a2.7 2.7 0 0 1 1.2-.3 3.2 3.2 0 0 1 1.4.3 2.6 2.6 0 0 1 1.1.7zm6.9 0h-.3c-.1 0-.2 0-.2-.1l-.4-.2-.5-.2h-1.5a.5.5 0 0 0-.5.3c-.2.1-.3.2-.3.4a1.9 1.9 0 0 0 0 1.2l.5.4.7.3.8.3.8.3.7.4a1.8 1.8 0 0 1 .5.7 2.4 2.4 0 0 1 .2.9 3.6 3.6 0 0 1-.2 1.1 2 2 0 0 1-.6.9 2.1 2.1 0 0 1-1 .6 2.4 2.4 0 0 1-1.2.3 2.7 2.7 0 0 1-1.6-.4 5.7 5.7 0 0 1-1.3-.8l.4-.6h.5l.2.2.3.2.4.2.5.2h.6l.8-.2.6-.3.3-.5a1.7 1.7 0 0 0 .1-.7 1.5 1.5 0 0 0-.1-.7l-.5-.4-.7-.3-.8-.3a1.1 1.1 0 0 1-.8-.3l-.7-.4a1.8 1.8 0 0 1-.5-.7 2.5 2.5 0 0 1-.2-1 2.9 2.9 0 0 1 .2-.9 2.2 2.2 0 0 1 .5-.8l.9-.5a2.7 2.7 0 0 1 1.2-.3 3.2 3.2 0 0 1 1.4.3 2.6 2.6 0 0 1 1.1.7zm9.4 7.6h-1.2c0-.1-.1-.1-.1-.2l-.9-2.2h-4l-.9 2.2v.2h-1.3l3.6-9.1h1.2zm-2.5-3.4l-1.4-3.7-.2-.3a.9.9 0 0 0-.1-.5l-.3.9-1.4 3.6zm10.9-1v3.5a5.1 5.1 0 0 1-1.5.7 4.3 4.3 0 0 1-1.7.3 4.1 4.1 0 0 1-1.9-.4 3.8 3.8 0 0 1-1.5-.9 5.6 5.6 0 0 1-1-1.5 5.2 5.2 0 0 1-.3-1.8 5.4 5.4 0 0 1 .3-1.9 3.6 3.6 0 0 1 2.4-2.4 5.8 5.8 0 0 1 1.9-.4h1l.9.2.7.4.6.5-.3.5-.3.2h-.2l-.4-.2-.5-.2-.6-.2h-.9l-1.4.2-1.1.8a2.9 2.9 0 0 0-.6 1.1 3.3 3.3 0 0 0-.3 1.5 4 4 0 0 0 .3 1.5 2.6 2.6 0 0 0 .7 1.1 2.1 2.1 0 0 0 1.1.7 3.2 3.2 0 0 0 1.4.3l1.1-.2 1-.4v-2h-1.6c-.1-.1-.1-.1-.1-.2v-.8zm7.5 3.4v1h-5.6v-9.1h5.6v1h-4.4v3h3.5v1h-3.5v3.1zm10.8-7h-3v8h-1.2v-8h-2.9v-1.1h7.1zm8.7-1.1v9.1h-1.3v-4.1h-4.8v4.1h-1.2v-9.1h1.2v4.1h4.8v-4.1zm7.9 8.1v1h-5.6v-9.1h5.6v1h-4.4v3h3.6v1h-3.6v3.1zm8.4 1h-1.1c-.2 0-.3-.1-.5-.3l-2.3-3.2c-.1-.1-.1-.2-.2-.2h-1.3v3.8h-1.2v-9.1h2.5l1.5.2 1 .5a1.6 1.6 0 0 1 .6.8 3.6 3.6 0 0 1 .2 1 2.2 2.2 0 0 1-.1.9 2.2 2.2 0 0 1-.5.8 1.8 1.8 0 0 1-.7.5l-.9.4.4.4zm-4.1-4.7h.9l.7-.4a1 1 0 0 0 .4-.5 2.2 2.2 0 0 0 .1-.8 1.7 1.7 0 0 0-.5-1.2 2.5 2.5 0 0 0-1.6-.4h-1.3v3.4zm12.7 4.7h-1.2c0-.1-.1-.1-.1-.2l-.9-2.2h-4l-.9 2.2v.2h-1.3l3.6-9.1h1.2zm-2.5-3.4l-1.4-3.7-.2-.3a.9.9 0 0 0-.1-.5l-.3.9-1.4 3.6zm6.5-5.7l1.4.2 1.1.6a1.5 1.5 0 0 1 .6.9 3.6 3.6 0 0 1 .2 1.1 4.3 4.3 0 0 1-.2 1.2l-.6.9-1.1.6-1.4.2h-1.5v3.4h-1.2v-9.1zm0 4.7h.9c.2-.1.5-.2.6-.4l.5-.6a1.9 1.9 0 0 0 .1-.8 1.9 1.9 0 0 0-.5-1.3 2.5 2.5 0 0 0-1.6-.5h-1.5v3.6zm8.1.8v3.6H115v-3.6l-3.3-5.5h1.3l.2.2 2 3.5.2.4.2.4c.1-.1.1-.2.2-.4l.2-.4 2-3.5.2-.2h1.3zm7.3-6.1h.9v11.9h-.9zm13.4 9.7h-1.2c0-.1-.1-.1-.1-.2l-.9-2.2h-4l-.8 2.2-.2.2h-1.2l3.6-9.1h1.2zm-2.5-3.4l-1.4-3.7a.4.4 0 0 1-.1-.3l-.2-.5-.3.9-1.4 3.6zm9-4.6h-2.9v8h-1.2v-8h-3v-1.1h7.1zm8.7-1.1v9.1h-1.2v-4.1H146v4.1h-1.2v-9.1h1.2v4.1h4.9v-4.1zm7.5 8v1.1h-5.1v-9.1h1.2v8zm7 .1v1H161v-9.1h5.6v1h-4.4v3h3.5v1h-3.5v3.1zm7.8-7h-2.9v8h-1.2v-8h-2.9v-1.1h7zm2.7 8h-1.3v-9.1h1.3zm8.7-1.9h.1l.5.5a4.1 4.1 0 0 1-1.3 1 5.8 5.8 0 0 1-1.9.4 3.4 3.4 0 0 1-1.8-.4 4.2 4.2 0 0 1-1.4-.9 5.3 5.3 0 0 1-.8-1.5 5.2 5.2 0 0 1-.3-1.8 5.8 5.8 0 0 1 .3-1.9 3.8 3.8 0 0 1 .9-1.5 3.4 3.4 0 0 1 1.4-.9 4.8 4.8 0 0 1 1.8-.4 3.3 3.3 0 0 1 1.7.4 3.5 3.5 0 0 1 1.3.8l-.4.5v.2h-.5l-.4-.3-.6-.3h-1l-1.3.2-1 .7a4.7 4.7 0 0 0-.7 1.2 6.1 6.1 0 0 0-.2 1.5 4 4 0 0 0 .3 1.5 2.4 2.4 0 0 0 .6 1.1l1 .7 1.2.2h.8l.6-.2.5-.2.4-.4zm11.1-6.1H194v8h-1.2v-8h-3v-1.1h7.1zm8.1 8h-1.1a.5.5 0 0 1-.5-.3l-2.4-3.2a.2.2 0 0 0-.2-.2h-1.3v3.8h-1.2v-9.1h2.5l1.5.2 1.1.5.6.8a3.6 3.6 0 0 1 .2 1 3.7 3.7 0 0 1-.6 1.7l-.7.5-1 .4.4.4zm-4.2-4.7h.9l.7-.4a1 1 0 0 0 .4-.5 2.4 2.4 0 0 0 .2-.8 1.4 1.4 0 0 0-.6-1.2 2.2 2.2 0 0 0-1.6-.4h-1.3v3.4zm12.8 4.7h-1.2l-.2-.2-.8-2.2h-4.1l-.8 2.2-.2.2h-1.2l3.6-9.1h1.3zM211 131l-1.4-3.7v-.3a.9.9 0 0 1-.1-.5l-.3.9-1.4 3.6zm5.1 3.4h-1.3v-9.1h1.3zm9.6-9.1v9.1h-.8l-.2-.2-5.2-6.8v7.1h-1.1v-9.1h.6c.1 0 .2 0 .2.1h.2v.2l5.2 6.7v-7zm3.6 9.1h-1.2v-9.1h1.2zm9.7-9.1v9.1h-.9l-.2-.2-5.2-6.8v.4c0 .1.1.1.1.2v6.5h-1.1v-9.1h.6c.1 0 .1 0 .1.1h.2v.2l5.3 6.7a.4.4 0 0 1-.1-.3v-6.7zm9.7 4.7v3.5a5.1 5.1 0 0 1-1.5.7 4.3 4.3 0 0 1-1.7.3 4.1 4.1 0 0 1-1.9-.4 3.8 3.8 0 0 1-1.5-.9 5.6 5.6 0 0 1-1-1.5 5.2 5.2 0 0 1-.3-1.8 5.4 5.4 0 0 1 .3-1.9 3.6 3.6 0 0 1 2.4-2.4 5.8 5.8 0 0 1 1.9-.4h1l.9.2.7.4.6.5-.3.5-.3.2h-.2l-.4-.2-.5-.2-.6-.2h-.9l-1.4.2-1.1.8a2.9 2.9 0 0 0-.6 1.1 3.3 3.3 0 0 0-.3 1.5 4 4 0 0 0 .3 1.5 2.6 2.6 0 0 0 .7 1.1 2.1 2.1 0 0 0 1.1.7 3.2 3.2 0 0 0 1.4.3l1.1-.2 1-.4v-2H246c-.1-.1-.1-.1-.1-.2v-.8z"/></symbol></svg>